<svg>
  <symbol id="arrow" xmlns="http://www.w3.org/2000/svg" width="20" height="20" viewBox="0 0 20 20" fill="none">
<path opacity="0.3" fill-rule="evenodd" clip-rule="evenodd" d="M0.283445 10.6843C-0.0944816 10.3064 -0.0944816 9.69363 0.283445 9.3157L9.3157 0.283445C9.69363 -0.0944804 10.3064 -0.0944804 10.6843 0.283445C11.0622 0.661371 11.0622 1.27411 10.6843 1.65204L3.30408 9.03226L19.0323 9.03226C19.5667 9.03226 20 9.46553 20 10C20 10.5345 19.5667 10.9677 19.0323 10.9677L3.30408 10.9677L10.6843 18.348C11.0622 18.7259 11.0622 19.3386 10.6843 19.7166C10.3064 20.0945 9.69363 20.0945 9.3157 19.7166L0.283445 10.6843Z" fill="#333333"/>
  </symbol>
  <symbol  id="close" xmlns="http://www.w3.org/2000/svg" width="20" height="20" viewBox="0 0 20 20" fill="none">
  <g opacity="0.3">
  <path fill-rule="evenodd" clip-rule="evenodd" d="M18.3334 10C18.3334 14.6024 14.6025 18.3333 10.0001 18.3333C5.39771 18.3333 1.66675 14.6024 1.66675 10C1.66675 5.39764 5.39771 1.66668 10.0001 1.66668C14.6025 1.66668 18.3334 5.39764 18.3334 10ZM13.0893 8.08927C13.4148 7.76383 13.4148 7.23619 13.0893 6.91076C12.7639 6.58532 12.2363 6.58532 11.9108 6.91076L10.0001 8.8215L8.08934 6.91076C7.7639 6.58532 7.23626 6.58532 6.91083 6.91076C6.58539 7.23619 6.58539 7.76383 6.91083 8.08927L8.82157 10L6.91083 11.9108C6.58539 12.2362 6.58539 12.7638 6.91083 13.0893C7.23626 13.4147 7.7639 13.4147 8.08934 13.0893L10.0001 11.1785L11.9108 13.0893C12.2363 13.4147 12.7639 13.4147 13.0893 13.0893C13.4148 12.7638 13.4148 12.2362 13.0893 11.9108L11.1786 10L13.0893 8.08927Z" fill="#333333"/>
  </g>
  </symbol>

  <symbol id="logo" xmlns="http://www.w3.org/2000/svg" width="24" height="24" viewBox="0 0 24 24" fill="none">
  <path d="M5 21C4.45 21 3.979 20.8043 3.587 20.413C3.19567 20.021 3 19.55 3 19V5C3 4.45 3.19567 3.979 3.587 3.587C3.979 3.19567 4.45 3 5 3H19C19.55 3 20.021 3.19567 20.413 3.587C20.8043 3.979 21 4.45 21 5V19C21 19.55 20.8043 20.021 20.413 20.413C20.021 20.8043 19.55 21 19 21H5ZM6 17H18L14.25 12L11.25 16L9 13L6 17Z" fill="#73AFF4"/>
  </symbol>
  <symbol id="search" xmlns="http://www.w3.org/2000/svg" width="18" height="18" viewBox="0 0 18 18" fill="none">
  <path d="M12.5 11H11.71L11.43 10.73C12.41 9.59 13 8.11 13 6.5C13 2.91 10.09 0 6.5 0C2.91 0 0 2.91 0 6.5C0 10.09 2.91 13 6.5 13C8.11 13 9.59 12.41 10.73 11.43L11 11.71V12.5L16 17.49L17.49 16L12.5 11ZM6.5 11C4.01 11 2 8.99 2 6.5C2 4.01 4.01 2 6.5 2C8.99 2 11 4.01 11 6.5C11 8.99 8.99 11 6.5 11Z" fill="#5A5A5A"/>
  </symbol>
</svg>
